<svg class="railroad-diagram" width="701" height="192" viewBox="0 0 701 192">
<g transform="translate(.5 .5)">
<path d="M 20 31 v 20 m 10 -20 v 20 m -10 -10 h 20.5"></path>
<g>
<path d="M40 41h0"></path>
<path d="M660 41h0"></path>
<g>
<path d="M40 41h0"></path>
<path d="M140 41h0"></path>
<path d="M40 41h20"></path>
<g>
<path d="M60 41h0"></path>
<path d="M120 41h0"></path>
<rect x="60" y="30" width="60" height="22" rx="10" ry="10"></rect>
<text x="90" y="45">COUNT</text>
</g>
<path d="M120 41h20"></path>
<path d="M40 41a10 10 0 0 1 10 10v10a10 10 0 0 0 10 10"></path>
<g>
<path d="M60 71h8"></path>
<path d="M112 71h8"></path>
<rect x="68" y="60" width="44" height="22" rx="10" ry="10"></rect>
<text x="90" y="75">SUM</text>
</g>
<path d="M120 71a10 10 0 0 0 10 -10v-10a10 10 0 0 1 10 -10"></path>
<path d="M40 41a10 10 0 0 1 10 10v40a10 10 0 0 0 10 10"></path>
<g>
<path d="M60 101h8"></path>
<path d="M112 101h8"></path>
<rect x="68" y="90" width="44" height="22" rx="10" ry="10"></rect>
<text x="90" y="105">AVG</text>
</g>
<path d="M120 101a10 10 0 0 0 10 -10v-40a10 10 0 0 1 10 -10"></path>
<path d="M40 41a10 10 0 0 1 10 10v70a10 10 0 0 0 10 10"></path>
<g>
<path d="M60 131h8"></path>
<path d="M112 131h8"></path>
<rect x="68" y="120" width="44" height="22" rx="10" ry="10"></rect>
<text x="90" y="135">MIN</text>
</g>
<path d="M120 131a10 10 0 0 0 10 -10v-70a10 10 0 0 1 10 -10"></path>
<path d="M40 41a10 10 0 0 1 10 10v100a10 10 0 0 0 10 10"></path>
<g>
<path d="M60 161h8"></path>
<path d="M112 161h8"></path>
<rect x="68" y="150" width="44" height="22" rx="10" ry="10"></rect>
<text x="90" y="165">MAX</text>
</g>
<path d="M120 161a10 10 0 0 0 10 -10v-100a10 10 0 0 1 10 -10"></path>
</g>
<path d="M140 41h10"></path>
<g>
<path d="M150 41h0"></path>
<path d="M178 41h0"></path>
<rect x="150" y="30" width="28" height="22" rx="10" ry="10"></rect>
<text x="164" y="45">(</text>
</g>
<path d="M178 41h10"></path>
<path d="M188 41h10"></path>
<g>
<path d="M198 41h0"></path>
<path d="M386 41h0"></path>
<rect x="198" y="30" width="188" height="22"></rect>
<text x="292" y="45">field&#95;path&#95;expression</text>
</g>
<path d="M386 41h10"></path>
<path d="M396 41h10"></path>
<g>
<path d="M406 41h0"></path>
<path d="M434 41h0"></path>
<rect x="406" y="30" width="28" height="22" rx="10" ry="10"></rect>
<text x="420" y="45">)</text>
</g>
<path d="M434 41h10"></path>
<g>
<path d="M444 41h0"></path>
<path d="M660 41h0"></path>
<path d="M444 41a10 10 0 0 0 10 -10v0a10 10 0 0 1 10 -10"></path>
<g>
<path d="M464 21h176"></path>
</g>
<path d="M640 21a10 10 0 0 1 10 10v0a10 10 0 0 0 10 10"></path>
<path d="M444 41h20"></path>
<g>
<path d="M464 41h0"></path>
<path d="M640 41h0"></path>
<path d="M464 41h10"></path>
<g>
<path d="M474 41h0"></path>
<path d="M510 41h0"></path>
<rect x="474" y="30" width="36" height="22" rx="10" ry="10"></rect>
<text x="492" y="45">AS</text>
</g>
<path d="M510 41h10"></path>
<path d="M520 41h10"></path>
<g>
<path d="M530 41h0"></path>
<path d="M630 41h0"></path>
<rect x="530" y="30" width="100" height="22"></rect>
<text x="580" y="45">identifier</text>
</g>
<path d="M630 41h10"></path>
</g>
<path d="M640 41h20"></path>
</g>
</g>
<path d="M 660 41 h 20 m -10 -10 v 20 m 10 -20 v 20"></path>
</g>
</svg>
