<svg class="railroad-diagram" width="537" height="258" viewBox="0 0 537 258">
<g transform="translate(.5 .5)">
<path d="M 20 31 v 20 m 10 -20 v 20 m -10 -10 h 20.5"></path>
<g>
<path d="M40 41h0"></path>
<path d="M496 41h0"></path>
<path d="M40 41h20"></path>
<g>
<path d="M60 41h0"></path>
<path d="M476 41h0"></path>
<path d="M60 41h10"></path>
<g>
<path d="M70 41h0"></path>
<path d="M98 41h0"></path>
<rect x="70" y="30" width="28" height="22" rx="10" ry="10"></rect>
<text x="84" y="45">.</text>
</g>
<path d="M98 41h10"></path>
<path d="M108 41h10"></path>
<g>
<path d="M118 41h0"></path>
<path d="M218 41h0"></path>
<rect x="118" y="30" width="100" height="22"></rect>
<text x="168" y="45">identifier</text>
</g>
<path d="M218 41h10"></path>
<g>
<path d="M228 41h0"></path>
<path d="M476 41h0"></path>
<path d="M228 41a10 10 0 0 0 10 -10v0a10 10 0 0 1 10 -10"></path>
<g>
<path d="M248 21h208"></path>
</g>
<path d="M456 21a10 10 0 0 1 10 10v0a10 10 0 0 0 10 10"></path>
<path d="M228 41h20"></path>
<g>
<path d="M248 41h0"></path>
<path d="M456 41h0"></path>
<path d="M248 41h10"></path>
<g>
<path d="M258 41h0"></path>
<path d="M446 41h0"></path>
<g>
<path d="M258 41h0"></path>
<path d="M326 41h0"></path>
<path d="M258 41h20"></path>
<g>
<path d="M278 41h0"></path>
<path d="M306 41h0"></path>
<rect x="278" y="30" width="28" height="22" rx="10" ry="10"></rect>
<text x="292" y="45">.</text>
</g>
<path d="M306 41h20"></path>
<path d="M258 41a10 10 0 0 1 10 10v10a10 10 0 0 0 10 10"></path>
<g>
<path d="M278 71h0"></path>
<path d="M306 71h0"></path>
<rect x="278" y="60" width="28" height="22" rx="10" ry="10"></rect>
<text x="292" y="75">/</text>
</g>
<path d="M306 71a10 10 0 0 0 10 -10v-10a10 10 0 0 1 10 -10"></path>
</g>
<path d="M326 41h10"></path>
<g>
<path d="M336 41h0"></path>
<path d="M436 41h0"></path>
<rect x="336" y="30" width="100" height="22"></rect>
<text x="386" y="45">identifier</text>
</g>
<path d="M436 41h10"></path>
</g>
<path d="M446 41h10"></path>
<path d="M258 41a10 10 0 0 0 -10 10v29a10 10 0 0 0 10 10"></path>
<g>
<path d="M258 90h188"></path>
</g>
<path d="M446 90a10 10 0 0 0 10 -10v-29a10 10 0 0 0 -10 -10"></path>
</g>
<path d="M456 41h20"></path>
</g>
</g>
<path d="M476 41h20"></path>
<path d="M40 41a10 10 0 0 1 10 10v58a10 10 0 0 0 10 10"></path>
<g>
<path d="M60 119h24"></path>
<path d="M452 119h24"></path>
<path d="M84 119h10"></path>
<g>
<path d="M94 119h0"></path>
<path d="M194 119h0"></path>
<rect x="94" y="108" width="100" height="22"></rect>
<text x="144" y="123">identifier</text>
</g>
<path d="M194 119h10"></path>
<g>
<path d="M204 119h0"></path>
<path d="M452 119h0"></path>
<path d="M204 119a10 10 0 0 0 10 -10v0a10 10 0 0 1 10 -10"></path>
<g>
<path d="M224 99h208"></path>
</g>
<path d="M432 99a10 10 0 0 1 10 10v0a10 10 0 0 0 10 10"></path>
<path d="M204 119h20"></path>
<g>
<path d="M224 119h0"></path>
<path d="M432 119h0"></path>
<path d="M224 119h10"></path>
<g>
<path d="M234 119h0"></path>
<path d="M422 119h0"></path>
<g>
<path d="M234 119h0"></path>
<path d="M302 119h0"></path>
<path d="M234 119h20"></path>
<g>
<path d="M254 119h0"></path>
<path d="M282 119h0"></path>
<rect x="254" y="108" width="28" height="22" rx="10" ry="10"></rect>
<text x="268" y="123">.</text>
</g>
<path d="M282 119h20"></path>
<path d="M234 119a10 10 0 0 1 10 10v10a10 10 0 0 0 10 10"></path>
<g>
<path d="M254 149h0"></path>
<path d="M282 149h0"></path>
<rect x="254" y="138" width="28" height="22" rx="10" ry="10"></rect>
<text x="268" y="153">/</text>
</g>
<path d="M282 149a10 10 0 0 0 10 -10v-10a10 10 0 0 1 10 -10"></path>
</g>
<path d="M302 119h10"></path>
<g>
<path d="M312 119h0"></path>
<path d="M412 119h0"></path>
<rect x="312" y="108" width="100" height="22"></rect>
<text x="362" y="123">identifier</text>
</g>
<path d="M412 119h10"></path>
</g>
<path d="M422 119h10"></path>
<path d="M234 119a10 10 0 0 0 -10 10v29a10 10 0 0 0 10 10"></path>
<g>
<path d="M234 168h188"></path>
</g>
<path d="M422 168a10 10 0 0 0 10 -10v-29a10 10 0 0 0 -10 -10"></path>
</g>
<path d="M432 119h20"></path>
</g>
</g>
<path d="M476 119a10 10 0 0 0 10 -10v-58a10 10 0 0 1 10 -10"></path>
<path d="M40 41a10 10 0 0 1 10 10v126a10 10 0 0 0 10 10"></path>
<g>
<path d="M60 187h124"></path>
<path d="M352 187h124"></path>
<path d="M184 187h10"></path>
<g>
<path d="M194 187h0"></path>
<path d="M222 187h0"></path>
<rect x="194" y="176" width="28" height="22" rx="10" ry="10"></rect>
<text x="208" y="191">@</text>
</g>
<path d="M222 187h10"></path>
<path d="M232 187h10"></path>
<g>
<path d="M242 187h0"></path>
<path d="M342 187h0"></path>
<rect x="242" y="176" width="100" height="22"></rect>
<text x="292" y="191">identifier</text>
</g>
<path d="M342 187h10"></path>
</g>
<path d="M476 187a10 10 0 0 0 10 -10v-126a10 10 0 0 1 10 -10"></path>
<path d="M40 41a10 10 0 0 1 10 10v166a10 10 0 0 0 10 10"></path>
<g>
<path d="M60 227h52"></path>
<path d="M424 227h52"></path>
<path d="M112 227h10"></path>
<g>
<path d="M122 227h0"></path>
<path d="M206 227h0"></path>
<rect x="122" y="216" width="84" height="22"></rect>
<text x="164" y="231">variable</text>
</g>
<path d="M206 227h10"></path>
<g>
<path d="M216 227h0"></path>
<path d="M424 227h0"></path>
<path d="M216 227a10 10 0 0 0 10 -10v0a10 10 0 0 1 10 -10"></path>
<g>
<path d="M236 207h168"></path>
</g>
<path d="M404 207a10 10 0 0 1 10 10v0a10 10 0 0 0 10 10"></path>
<path d="M216 227h20"></path>
<g>
<path d="M236 227h0"></path>
<path d="M404 227h0"></path>
<path d="M236 227h10"></path>
<g>
<path d="M246 227h0"></path>
<path d="M274 227h0"></path>
<rect x="246" y="216" width="28" height="22" rx="10" ry="10"></rect>
<text x="260" y="231">.</text>
</g>
<path d="M274 227h10"></path>
<path d="M284 227h10"></path>
<g>
<path d="M294 227h0"></path>
<path d="M394 227h0"></path>
<rect x="294" y="216" width="100" height="22"></rect>
<text x="344" y="231">identifier</text>
</g>
<path d="M394 227h10"></path>
</g>
<path d="M404 227h20"></path>
</g>
</g>
<path d="M476 227a10 10 0 0 0 10 -10v-166a10 10 0 0 1 10 -10"></path>
</g>
<path d="M 496 41 h 20 m -10 -10 v 20 m 10 -20 v 20"></path>
</g>
</svg>
