<svg class="railroad-diagram" width="181" height="92" viewBox="0 0 181 92">
<g transform="translate(.5 .5)">
<path d="M 20 21 v 20 m 10 -20 v 20 m -10 -10 h 20.5"></path>
<path d="M40 31h10"></path>
<g>
<path d="M50 31h0"></path>
<path d="M130 31h0"></path>
<path d="M50 31h10"></path>
<g>
<path d="M60 31h0"></path>
<path d="M120 31h0"></path>
<rect x="60" y="20" width="60" height="22"></rect>
<text x="90" y="35">field</text>
</g>
<path d="M120 31h10"></path>
<path d="M60 31a10 10 0 0 0 -10 10v10a10 10 0 0 0 10 10"></path>
<g>
<path d="M60 61h16"></path>
<path d="M104 61h16"></path>
<rect x="76" y="50" width="28" height="22" rx="10" ry="10"></rect>
<text x="90" y="65">,</text>
</g>
<path d="M120 61a10 10 0 0 0 10 -10v-10a10 10 0 0 0 -10 -10"></path>
</g>
<path d="M130 31h10"></path>
<path d="M 140 31 h 20 m -10 -10 v 20 m 10 -20 v 20"></path>
</g>
</svg>
