<svg class="railroad-diagram" width="745" height="72" viewBox="0 0 745 72">
<g transform="translate(.5 .5)">
<path d="M 20 31 v 20 m 10 -20 v 20 m -10 -10 h 20.5"></path>
<g>
<path d="M40 41h0"></path>
<path d="M704 41h0"></path>
<path d="M40 41h10"></path>
<g>
<path d="M50 41h0"></path>
<path d="M94 41h0"></path>
<rect x="50" y="30" width="44" height="22" rx="10" ry="10"></rect>
<text x="72" y="45">FOR</text>
</g>
<path d="M94 41h10"></path>
<path d="M104 41h10"></path>
<g>
<path d="M114 41h0"></path>
<path d="M214 41h0"></path>
<rect x="114" y="30" width="100" height="22"></rect>
<text x="164" y="45">identifier</text>
</g>
<path d="M214 41h10"></path>
<path d="M224 41h10"></path>
<g>
<path d="M234 41h0"></path>
<path d="M270 41h0"></path>
<rect x="234" y="30" width="36" height="22" rx="10" ry="10"></rect>
<text x="252" y="45">IN</text>
</g>
<path d="M270 41h10"></path>
<path d="M280 41h10"></path>
<g>
<path d="M290 41h0"></path>
<path d="M478 41h0"></path>
<rect x="290" y="30" width="188" height="22"></rect>
<text x="384" y="45">field&#95;path&#95;expression</text>
</g>
<path d="M478 41h10"></path>
<g>
<path d="M488 41h0"></path>
<path d="M704 41h0"></path>
<path d="M488 41a10 10 0 0 0 10 -10v0a10 10 0 0 1 10 -10"></path>
<g>
<path d="M508 21h176"></path>
</g>
<path d="M684 21a10 10 0 0 1 10 10v0a10 10 0 0 0 10 10"></path>
<path d="M488 41h20"></path>
<g>
<path d="M508 41h0"></path>
<path d="M684 41h0"></path>
<path d="M508 41h10"></path>
<g>
<path d="M518 41h0"></path>
<path d="M554 41h0"></path>
<rect x="518" y="30" width="36" height="22" rx="10" ry="10"></rect>
<text x="536" y="45">AT</text>
</g>
<path d="M554 41h10"></path>
<path d="M564 41h10"></path>
<g>
<path d="M574 41h0"></path>
<path d="M674 41h0"></path>
<rect x="574" y="30" width="100" height="22"></rect>
<text x="624" y="45">identifier</text>
</g>
<path d="M674 41h10"></path>
</g>
<path d="M684 41h20"></path>
</g>
</g>
<path d="M 704 41 h 20 m -10 -10 v 20 m 10 -20 v 20"></path>
</g>
</svg>
