<svg class="railroad-diagram" width="265" height="62" viewBox="0 0 265 62">
<g transform="translate(.5 .5)">
<path d="M 20 21 v 20 m 10 -20 v 20 m -10 -10 h 20.5"></path>
<g>
<path d="M40 31h0"></path>
<path d="M224 31h0"></path>
<path d="M40 31h10"></path>
<g>
<path d="M50 31h0"></path>
<path d="M102 31h0"></path>
<rect x="50" y="20" width="52" height="22" rx="10" ry="10"></rect>
<text x="76" y="35">FROM</text>
</g>
<path d="M102 31h10"></path>
<path d="M112 31h10"></path>
<g>
<path d="M122 31h0"></path>
<path d="M214 31h0"></path>
<rect x="122" y="20" width="92" height="22"></rect>
<text x="168" y="35">file&#95;path</text>
</g>
<path d="M214 31h10"></path>
</g>
<path d="M 224 31 h 20 m -10 -10 v 20 m 10 -20 v 20"></path>
</g>
</svg>
