<svg class="railroad-diagram" width="357" height="92" viewBox="0 0 357 92">
<g transform="translate(.5 .5)">
<path d="M 20 21 v 20 m 10 -20 v 20 m -10 -10 h 20.5"></path>
<g>
<path d="M40 31h0"></path>
<path d="M316 31h0"></path>
<path d="M40 31h10"></path>
<g>
<path d="M50 31h0"></path>
<path d="M110 31h0"></path>
<rect x="50" y="20" width="60" height="22" rx="10" ry="10"></rect>
<text x="80" y="35">GROUP</text>
</g>
<path d="M110 31h10"></path>
<path d="M120 31h10"></path>
<g>
<path d="M130 31h0"></path>
<path d="M166 31h0"></path>
<rect x="130" y="20" width="36" height="22" rx="10" ry="10"></rect>
<text x="148" y="35">BY</text>
</g>
<path d="M166 31h10"></path>
<path d="M176 31h10"></path>
<g>
<path d="M186 31h0"></path>
<path d="M306 31h0"></path>
<path d="M186 31h10"></path>
<g>
<path d="M196 31h0"></path>
<path d="M296 31h0"></path>
<rect x="196" y="20" width="100" height="22"></rect>
<text x="246" y="35">field&#95;name</text>
</g>
<path d="M296 31h10"></path>
<path d="M196 31a10 10 0 0 0 -10 10v10a10 10 0 0 0 10 10"></path>
<g>
<path d="M196 61h36"></path>
<path d="M260 61h36"></path>
<rect x="232" y="50" width="28" height="22" rx="10" ry="10"></rect>
<text x="246" y="65">,</text>
</g>
<path d="M296 61a10 10 0 0 0 10 -10v-10a10 10 0 0 0 -10 -10"></path>
</g>
<path d="M306 31h10"></path>
</g>
<path d="M 316 31 h 20 m -10 -10 v 20 m 10 -20 v 20"></path>
</g>
</svg>
