<svg class="railroad-diagram" width="337" height="62" viewBox="0 0 337 62">
<g transform="translate(.5 .5)">
<path d="M 20 21 v 20 m 10 -20 v 20 m -10 -10 h 20.5"></path>
<g>
<path d="M40 31h0"></path>
<path d="M296 31h0"></path>
<path d="M40 31h10"></path>
<g>
<path d="M50 31h0"></path>
<path d="M118 31h0"></path>
<rect x="50" y="20" width="68" height="22" rx="10" ry="10"></rect>
<text x="84" y="35">HAVING</text>
</g>
<path d="M118 31h10"></path>
<path d="M128 31h10"></path>
<g>
<path d="M138 31h0"></path>
<path d="M286 31h0"></path>
<rect x="138" y="20" width="148" height="22"></rect>
<text x="212" y="35">where&#95;expression</text>
</g>
<path d="M286 31h10"></path>
</g>
<path d="M 296 31 h 20 m -10 -10 v 20 m 10 -20 v 20"></path>
</g>
</svg>
