<svg class="railroad-diagram" width="249" height="62" viewBox="0 0 249 62">
<g transform="translate(.5 .5)">
<path d="M 20 21 v 20 m 10 -20 v 20 m -10 -10 h 20.5"></path>
<g>
<path d="M40 31h0"></path>
<path d="M208 31h0"></path>
<path d="M40 31h10"></path>
<g>
<path d="M50 31h0"></path>
<path d="M110 31h0"></path>
<rect x="50" y="20" width="60" height="22" rx="10" ry="10"></rect>
<text x="80" y="35">LIMIT</text>
</g>
<path d="M110 31h10"></path>
<path d="M120 31h10"></path>
<g>
<path d="M130 31h0"></path>
<path d="M198 31h0"></path>
<rect x="130" y="20" width="68" height="22"></rect>
<text x="164" y="35">number</text>
</g>
<path d="M198 31h10"></path>
</g>
<path d="M 208 31 h 20 m -10 -10 v 20 m 10 -20 v 20"></path>
</g>
</svg>
