<svg class="railroad-diagram" width="257" height="62" viewBox="0 0 257 62">
<g transform="translate(.5 .5)">
<path d="M 20 21 v 20 m 10 -20 v 20 m -10 -10 h 20.5"></path>
<g>
<path d="M40 31h0"></path>
<path d="M216 31h0"></path>
<path d="M40 31h10"></path>
<g>
<path d="M50 31h0"></path>
<path d="M118 31h0"></path>
<rect x="50" y="20" width="68" height="22" rx="10" ry="10"></rect>
<text x="84" y="35">OFFSET</text>
</g>
<path d="M118 31h10"></path>
<path d="M128 31h10"></path>
<g>
<path d="M138 31h0"></path>
<path d="M206 31h0"></path>
<rect x="138" y="20" width="68" height="22"></rect>
<text x="172" y="35">number</text>
</g>
<path d="M206 31h10"></path>
</g>
<path d="M 216 31 h 20 m -10 -10 v 20 m 10 -20 v 20"></path>
</g>
</svg>
