<svg class="railroad-diagram" width="509" height="132" viewBox="0 0 509 132">
<g transform="translate(.5 .5)">
<path d="M 20 31 v 20 m 10 -20 v 20 m -10 -10 h 20.5"></path>
<g>
<path d="M40 41h0"></path>
<path d="M468 41h0"></path>
<path d="M40 41h10"></path>
<g>
<path d="M50 41h0"></path>
<path d="M110 41h0"></path>
<rect x="50" y="30" width="60" height="22" rx="10" ry="10"></rect>
<text x="80" y="45">ORDER</text>
</g>
<path d="M110 41h10"></path>
<path d="M120 41h10"></path>
<g>
<path d="M130 41h0"></path>
<path d="M166 41h0"></path>
<rect x="130" y="30" width="36" height="22" rx="10" ry="10"></rect>
<text x="148" y="45">BY</text>
</g>
<path d="M166 41h10"></path>
<path d="M176 41h10"></path>
<g>
<path d="M186 41h0"></path>
<path d="M458 41h0"></path>
<path d="M186 41h10"></path>
<g>
<path d="M196 41h0"></path>
<path d="M448 41h0"></path>
<path d="M196 41h10"></path>
<g>
<path d="M206 41h0"></path>
<path d="M306 41h0"></path>
<rect x="206" y="30" width="100" height="22"></rect>
<text x="256" y="45">field&#95;name</text>
</g>
<path d="M306 41h10"></path>
<g>
<path d="M316 41h0"></path>
<path d="M448 41h0"></path>
<path d="M316 41a10 10 0 0 0 10 -10v0a10 10 0 0 1 10 -10"></path>
<g>
<path d="M336 21h92"></path>
</g>
<path d="M428 21a10 10 0 0 1 10 10v0a10 10 0 0 0 10 10"></path>
<path d="M316 41h20"></path>
<g>
<path d="M336 41h0"></path>
<path d="M428 41h0"></path>
<path d="M336 41h20"></path>
<g>
<path d="M356 41h4"></path>
<path d="M404 41h4"></path>
<rect x="360" y="30" width="44" height="22" rx="10" ry="10"></rect>
<text x="382" y="45">ASC</text>
</g>
<path d="M408 41h20"></path>
<path d="M336 41a10 10 0 0 1 10 10v10a10 10 0 0 0 10 10"></path>
<g>
<path d="M356 71h0"></path>
<path d="M408 71h0"></path>
<rect x="356" y="60" width="52" height="22" rx="10" ry="10"></rect>
<text x="382" y="75">DESC</text>
</g>
<path d="M408 71a10 10 0 0 0 10 -10v-10a10 10 0 0 1 10 -10"></path>
</g>
<path d="M428 41h20"></path>
</g>
</g>
<path d="M448 41h10"></path>
<path d="M196 41a10 10 0 0 0 -10 10v40a10 10 0 0 0 10 10"></path>
<g>
<path d="M196 101h112"></path>
<path d="M336 101h112"></path>
<rect x="308" y="90" width="28" height="22" rx="10" ry="10"></rect>
<text x="322" y="105">,</text>
</g>
<path d="M448 101a10 10 0 0 0 10 -10v-40a10 10 0 0 0 -10 -10"></path>
</g>
<path d="M458 41h10"></path>
</g>
<path d="M 468 41 h 20 m -10 -10 v 20 m 10 -20 v 20"></path>
</g>
</svg>
