<svg class="railroad-diagram" width="1701" height="81" viewBox="0 0 1701 81">
<g transform="translate(.5 .5)">
<path d="M 20 31 v 20 m 10 -20 v 20 m -10 -10 h 20.5"></path>
<g>
<path d="M40 41h0"></path>
<path d="M1660 41h0"></path>
<path d="M40 41h10"></path>
<g>
<path d="M50 41h0"></path>
<path d="M118 41h0"></path>
<rect x="50" y="30" width="68" height="22" rx="10" ry="10"></rect>
<text x="84" y="45">SELECT</text>
</g>
<path d="M118 41h10"></path>
<g>
<path d="M128 41h0"></path>
<path d="M252 41h0"></path>
<path d="M128 41a10 10 0 0 0 10 -10v0a10 10 0 0 1 10 -10"></path>
<g>
<path d="M148 21h84"></path>
</g>
<path d="M232 21a10 10 0 0 1 10 10v0a10 10 0 0 0 10 10"></path>
<path d="M128 41h20"></path>
<g>
<path d="M148 41h0"></path>
<path d="M232 41h0"></path>
<rect x="148" y="30" width="84" height="22" rx="10" ry="10"></rect>
<text x="190" y="45">DISTINCT</text>
</g>
<path d="M232 41h20"></path>
</g>
<path d="M252 41h10"></path>
<g>
<path d="M262 41h0"></path>
<path d="M362 41h0"></path>
<rect x="262" y="30" width="100" height="22"></rect>
<text x="312" y="45">field&#95;list</text>
</g>
<path d="M362 41h10"></path>
<path d="M372 41h10"></path>
<g>
<path d="M382 41h0"></path>
<path d="M490 41h0"></path>
<rect x="382" y="30" width="108" height="22"></rect>
<text x="436" y="45">from&#95;clause</text>
</g>
<path d="M490 41h10"></path>
<g>
<path d="M500 41h0"></path>
<path d="M660 41h0"></path>
<path d="M500 41a10 10 0 0 0 10 -10v0a10 10 0 0 1 10 -10"></path>
<g>
<path d="M520 21h120"></path>
</g>
<path d="M640 21a10 10 0 0 1 10 10v0a10 10 0 0 0 10 10"></path>
<path d="M500 41h20"></path>
<g>
<path d="M520 41h0"></path>
<path d="M640 41h0"></path>
<path d="M520 41h10"></path>
<g>
<path d="M530 41h0"></path>
<path d="M630 41h0"></path>
<rect x="530" y="30" width="100" height="22"></rect>
<text x="580" y="45">for&#95;clause</text>
</g>
<path d="M630 41h10"></path>
<path d="M530 41a10 10 0 0 0 -10 10v0a10 10 0 0 0 10 10"></path>
<g>
<path d="M530 61h100"></path>
</g>
<path d="M630 61a10 10 0 0 0 10 -10v0a10 10 0 0 0 -10 -10"></path>
</g>
<path d="M640 41h20"></path>
</g>
<g>
<path d="M660 41h0"></path>
<path d="M816 41h0"></path>
<path d="M660 41a10 10 0 0 0 10 -10v0a10 10 0 0 1 10 -10"></path>
<g>
<path d="M680 21h116"></path>
</g>
<path d="M796 21a10 10 0 0 1 10 10v0a10 10 0 0 0 10 10"></path>
<path d="M660 41h20"></path>
<g>
<path d="M680 41h0"></path>
<path d="M796 41h0"></path>
<rect x="680" y="30" width="116" height="22"></rect>
<text x="738" y="45">where&#95;clause</text>
</g>
<path d="M796 41h20"></path>
</g>
<g>
<path d="M816 41h0"></path>
<path d="M996 41h0"></path>
<path d="M816 41a10 10 0 0 0 10 -10v0a10 10 0 0 1 10 -10"></path>
<g>
<path d="M836 21h140"></path>
</g>
<path d="M976 21a10 10 0 0 1 10 10v0a10 10 0 0 0 10 10"></path>
<path d="M816 41h20"></path>
<g>
<path d="M836 41h0"></path>
<path d="M976 41h0"></path>
<rect x="836" y="30" width="140" height="22"></rect>
<text x="906" y="45">group&#95;by&#95;clause</text>
</g>
<path d="M976 41h20"></path>
</g>
<g>
<path d="M996 41h0"></path>
<path d="M1160 41h0"></path>
<path d="M996 41a10 10 0 0 0 10 -10v0a10 10 0 0 1 10 -10"></path>
<g>
<path d="M1016 21h124"></path>
</g>
<path d="M1140 21a10 10 0 0 1 10 10v0a10 10 0 0 0 10 10"></path>
<path d="M996 41h20"></path>
<g>
<path d="M1016 41h0"></path>
<path d="M1140 41h0"></path>
<rect x="1016" y="30" width="124" height="22"></rect>
<text x="1078" y="45">having&#95;clause</text>
</g>
<path d="M1140 41h20"></path>
</g>
<g>
<path d="M1160 41h0"></path>
<path d="M1340 41h0"></path>
<path d="M1160 41a10 10 0 0 0 10 -10v0a10 10 0 0 1 10 -10"></path>
<g>
<path d="M1180 21h140"></path>
</g>
<path d="M1320 21a10 10 0 0 1 10 10v0a10 10 0 0 0 10 10"></path>
<path d="M1160 41h20"></path>
<g>
<path d="M1180 41h0"></path>
<path d="M1320 41h0"></path>
<rect x="1180" y="30" width="140" height="22"></rect>
<text x="1250" y="45">order&#95;by&#95;clause</text>
</g>
<path d="M1320 41h20"></path>
</g>
<g>
<path d="M1340 41h0"></path>
<path d="M1496 41h0"></path>
<path d="M1340 41a10 10 0 0 0 10 -10v0a10 10 0 0 1 10 -10"></path>
<g>
<path d="M1360 21h116"></path>
</g>
<path d="M1476 21a10 10 0 0 1 10 10v0a10 10 0 0 0 10 10"></path>
<path d="M1340 41h20"></path>
<g>
<path d="M1360 41h0"></path>
<path d="M1476 41h0"></path>
<rect x="1360" y="30" width="116" height="22"></rect>
<text x="1418" y="45">limit&#95;clause</text>
</g>
<path d="M1476 41h20"></path>
</g>
<g>
<path d="M1496 41h0"></path>
<path d="M1660 41h0"></path>
<path d="M1496 41a10 10 0 0 0 10 -10v0a10 10 0 0 1 10 -10"></path>
<g>
<path d="M1516 21h124"></path>
</g>
<path d="M1640 21a10 10 0 0 1 10 10v0a10 10 0 0 0 10 10"></path>
<path d="M1496 41h20"></path>
<g>
<path d="M1516 41h0"></path>
<path d="M1640 41h0"></path>
<rect x="1516" y="30" width="124" height="22"></rect>
<text x="1578" y="45">offset&#95;clause</text>
</g>
<path d="M1640 41h20"></path>
</g>
</g>
<path d="M 1660 41 h 20 m -10 -10 v 20 m 10 -20 v 20"></path>
</g>
</svg>
