<svg class="railroad-diagram" width="253" height="122" viewBox="0 0 253 122">
<g transform="translate(.5 .5)">
<path d="M 20 21 v 20 m 10 -20 v 20 m -10 -10 h 20.5"></path>
<g>
<path d="M40 31h0"></path>
<path d="M212 31h0"></path>
<path d="M40 31h20"></path>
<g>
<path d="M60 31h0"></path>
<path d="M192 31h0"></path>
<rect x="60" y="20" width="132" height="22"></rect>
<text x="126" y="35">string&#95;literal</text>
</g>
<path d="M192 31h20"></path>
<path d="M40 31a10 10 0 0 1 10 10v10a10 10 0 0 0 10 10"></path>
<g>
<path d="M60 61h32"></path>
<path d="M160 61h32"></path>
<rect x="92" y="50" width="68" height="22"></rect>
<text x="126" y="65">number</text>
</g>
<path d="M192 61a10 10 0 0 0 10 -10v-10a10 10 0 0 1 10 -10"></path>
<path d="M40 31a10 10 0 0 1 10 10v40a10 10 0 0 0 10 10"></path>
<g>
<path d="M60 91h16"></path>
<path d="M176 91h16"></path>
<rect x="76" y="80" width="100" height="22"></rect>
<text x="126" y="95">identifier</text>
</g>
<path d="M192 91a10 10 0 0 0 10 -10v-40a10 10 0 0 1 10 -10"></path>
</g>
<path d="M 212 31 h 20 m -10 -10 v 20 m 10 -20 v 20"></path>
</g>
</svg>
