<svg class="railroad-diagram" width="385" height="92" viewBox="0 0 385 92">
<g transform="translate(.5 .5)">
<path d="M 20 21 v 20 m 10 -20 v 20 m -10 -10 h 20.5"></path>
<g>
<path d="M40 31h0"></path>
<path d="M344 31h0"></path>
<path d="M40 31h20"></path>
<g>
<path d="M60 31h0"></path>
<path d="M324 31h0"></path>
<path d="M60 31h10"></path>
<g>
<path d="M70 31h0"></path>
<path d="M98 31h0"></path>
<rect x="70" y="20" width="28" height="22" rx="10" ry="10"></rect>
<text x="84" y="35">(</text>
</g>
<path d="M98 31h10"></path>
<path d="M108 31h10"></path>
<g>
<path d="M118 31h0"></path>
<path d="M266 31h0"></path>
<rect x="118" y="20" width="148" height="22"></rect>
<text x="192" y="35">where&#95;expression</text>
</g>
<path d="M266 31h10"></path>
<path d="M276 31h10"></path>
<g>
<path d="M286 31h0"></path>
<path d="M314 31h0"></path>
<rect x="286" y="20" width="28" height="22" rx="10" ry="10"></rect>
<text x="300" y="35">)</text>
</g>
<path d="M314 31h10"></path>
</g>
<path d="M324 31h20"></path>
<path d="M40 31a10 10 0 0 1 10 10v10a10 10 0 0 0 10 10"></path>
<g>
<path d="M60 61h86"></path>
<path d="M238 61h86"></path>
<rect x="146" y="50" width="92" height="22"></rect>
<text x="192" y="65">condition</text>
</g>
<path d="M324 61a10 10 0 0 0 10 -10v-10a10 10 0 0 1 10 -10"></path>
</g>
<path d="M 344 31 h 20 m -10 -10 v 20 m 10 -20 v 20"></path>
</g>
</svg>
