<svg class="railroad-diagram" width="493" height="81" viewBox="0 0 493 81">
<g transform="translate(.5 .5)">
<path d="M 20 31 v 20 m 10 -20 v 20 m -10 -10 h 20.5"></path>
<g>
<path d="M40 41h0"></path>
<path d="M452 41h0"></path>
<path d="M40 41h10"></path>
<g>
<path d="M50 41h0"></path>
<path d="M174 41h0"></path>
<rect x="50" y="30" width="124" height="22"></rect>
<text x="112" y="45">where&#95;primary</text>
</g>
<path d="M174 41h10"></path>
<g>
<path d="M184 41h0"></path>
<path d="M452 41h0"></path>
<path d="M184 41a10 10 0 0 0 10 -10v0a10 10 0 0 1 10 -10"></path>
<g>
<path d="M204 21h228"></path>
</g>
<path d="M432 21a10 10 0 0 1 10 10v0a10 10 0 0 0 10 10"></path>
<path d="M184 41h20"></path>
<g>
<path d="M204 41h0"></path>
<path d="M432 41h0"></path>
<path d="M204 41h10"></path>
<g>
<path d="M214 41h0"></path>
<path d="M422 41h0"></path>
<path d="M214 41h10"></path>
<g>
<path d="M224 41h0"></path>
<path d="M268 41h0"></path>
<rect x="224" y="30" width="44" height="22" rx="10" ry="10"></rect>
<text x="246" y="45">AND</text>
</g>
<path d="M268 41h10"></path>
<path d="M278 41h10"></path>
<g>
<path d="M288 41h0"></path>
<path d="M412 41h0"></path>
<rect x="288" y="30" width="124" height="22"></rect>
<text x="350" y="45">where&#95;primary</text>
</g>
<path d="M412 41h10"></path>
</g>
<path d="M422 41h10"></path>
<path d="M214 41a10 10 0 0 0 -10 10v0a10 10 0 0 0 10 10"></path>
<g>
<path d="M214 61h208"></path>
</g>
<path d="M422 61a10 10 0 0 0 10 -10v0a10 10 0 0 0 -10 -10"></path>
</g>
<path d="M432 41h20"></path>
</g>
</g>
<path d="M 452 41 h 20 m -10 -10 v 20 m 10 -20 v 20"></path>
</g>
</svg>
